<svg class="icon" style="width: 1em; height: 1em;vertical-align: middle;fill: currentColor;overflow: hidden;" viewBox="0 0 1024 1024" version="1.1" xmlns="http://www.w3.org/2000/svg"><path d="M383.072 99.52c34.56 0 69.504 11.232 95.808 30.848 46.08 34.336 57.888 76.672 59.648 106.144 2.816 46.816-17.184 94.24-54.848 130.048-10.56 10.048-42.656 40.576-43.488 86.08-1.12 60.608 52.608 105.28 97.92 132.096a255.36 255.36 0 0 0 129.984 35.616c46.72 0 93.184-12.768 134.4-36.96 65.28-38.24 96.768-96.032 124.544-147.008l2.336-4.384 4.8-8.96c24.224 47.296 27.104 107.712 25.888 146.08-1.28 40.448-9.632 79.232-24.8 115.328-76.512 182.144-284.256 247.04-453.184 247.04-50.56 0-100.128-5.44-147.264-16.16-152.64-34.72-234.048-98.464-248.896-194.88-18.784-121.92 89.952-206.336 137.792-237.056 37.216-24.16 38.72-57.408 37.664-70.56-3.84-46.624-44.96-64.576-72.192-76.48l-8.32-3.68a452.608 452.608 0 0 1-68.064-37.216c46.912-2.112 90.464-31.104 112-75.072 27.584-56.128 71.744-100.864 112.512-113.92 14.368-4.608 29.76-6.944 45.76-6.944m0-64c-22.208 0-44.32 3.264-65.312 9.984-66.656 21.408-120.512 85.856-150.4 146.656-11.2 22.912-34.432 39.392-60 39.392-3.104 0-6.24-0.224-9.376-0.736-31.232-5.088-57.568-15.84-74.976-15.872-14.4 0-22.72 7.36-22.72 31.328 0 53.408 69.6 106.496 154.208 144.736 26.656 12.064 58.912 22.784 34.4 38.656C86.592 495.456 3.04 602.752 22.656 730.24c23.36 151.456 163.072 216.864 297.952 247.552 51.328 11.68 106.048 17.76 161.472 17.76 209.184 0 428.32-86.656 512.192-286.304 18.368-43.744 28.224-90.72 29.76-138.08 2.752-87.456-15.68-192-91.392-247.04a4.864 4.864 0 0 0-2.912-0.928c-16.608 0-53.888 73.44-58.88 82.56-26.24 48.224-51.456 93.6-100.704 122.464a201.92 201.92 0 0 1-102.048 28.16 190.4 190.4 0 0 1-97.408-26.688c-23.936-14.176-67.072-44.672-66.496-75.84 0.32-16.16 11.872-29.728 23.616-40.896 99.008-94.176 104.448-248.064-10.688-333.888-38.016-28.32-86.208-43.52-134.08-43.52z" fill="#333333" /><path d="M320.032 224m-32 0a32 32 0 1 0 64 0 32 32 0 1 0-64 0Z" fill="#333333" /><path d="M591.488 800c-93.184 0-184.544-37.696-240.896-101.408a16 16 0 0 1 24-21.184c57.792 65.312 157.248 100 253.856 88.352 51.712-6.24 101.632-25.76 140.544-54.912a16 16 0 1 1 19.2 25.6c-43.36 32.48-98.72 54.176-155.936 61.12-13.536 1.6-27.2 2.432-40.768 2.432z" fill="#333333" /></svg>