<?xml version="1.0" encoding="UTF-8" standalone="no"?>
<svg
   sodipodi:docname="logo.svg"
   inkscape:version="1.1.1 (c3084ef, 2021-09-22)"
   id="svg8"
   version="1.1"
   viewBox="0 0 63.499999 63.500002"
   height="240"
   width="240"
   xmlns:inkscape="http://www.inkscape.org/namespaces/inkscape"
   xmlns:sodipodi="http://sodipodi.sourceforge.net/DTD/sodipodi-0.dtd"
   xmlns="http://www.w3.org/2000/svg"
   xmlns:svg="http://www.w3.org/2000/svg"
   xmlns:rdf="http://www.w3.org/1999/02/22-rdf-syntax-ns#"
   xmlns:cc="http://creativecommons.org/ns#"
   xmlns:dc="http://purl.org/dc/elements/1.1/">
  <defs
     id="defs2">
    <marker
       inkscape:stockid="Arrow1Lend"
       orient="auto"
       refY="0.0"
       refX="0.0"
       id="marker1211"
       style="overflow:visible;"
       inkscape:isstock="true">
      <path
         id="path1209"
         d="M 0.0,0.0 L 5.0,-5.0 L -12.5,0.0 L 5.0,5.0 L 0.0,0.0 z "
         style="fill-rule:evenodd;stroke:#000000;stroke-width:1.0pt;"
         transform="scale(0.8) rotate(180) translate(12.5,0)" />
    </marker>
    <marker
       inkscape:stockid="Arrow1Lstart"
       orient="auto"
       refY="0.0"
       refX="0.0"
       id="marker1207"
       style="overflow:visible"
       inkscape:isstock="true">
      <path
         id="path1205"
         d="M 0.0,0.0 L 5.0,-5.0 L -12.5,0.0 L 5.0,5.0 L 0.0,0.0 z "
         style="fill-rule:evenodd;stroke:#000000;stroke-width:1.0pt"
         transform="scale(0.8) translate(12.5,0)" />
    </marker>
    <marker
       inkscape:stockid="Arrow1Lend"
       orient="auto"
       refY="0.0"
       refX="0.0"
       id="Arrow1Lend"
       style="overflow:visible;"
       inkscape:isstock="true">
      <path
         id="path930"
         d="M 0.0,0.0 L 5.0,-5.0 L -12.5,0.0 L 5.0,5.0 L 0.0,0.0 z "
         style="fill-rule:evenodd;stroke:#000000;stroke-width:1.0pt;"
         transform="scale(0.8) rotate(180) translate(12.5,0)" />
    </marker>
    <marker
       inkscape:stockid="Arrow1Lstart"
       orient="auto"
       refY="0.0"
       refX="0.0"
       id="Arrow1Lstart"
       style="overflow:visible"
       inkscape:isstock="true">
      <path
         id="path927"
         d="M 0.0,0.0 L 5.0,-5.0 L -12.5,0.0 L 5.0,5.0 L 0.0,0.0 z "
         style="fill-rule:evenodd;stroke:#000000;stroke-width:1.0pt"
         transform="scale(0.8) translate(12.5,0)" />
    </marker>
  </defs>
  <sodipodi:namedview
     inkscape:window-maximized="0"
     inkscape:window-y="25"
     inkscape:window-x="0"
     inkscape:window-height="847"
     inkscape:window-width="1252"
     units="px"
     showgrid="true"
     inkscape:document-rotation="0"
     inkscape:current-layer="layer1"
     inkscape:document-units="mm"
     inkscape:cy="77.750023"
     inkscape:cx="185.68535"
     inkscape:zoom="1.6398709"
     inkscape:pageshadow="2"
     inkscape:pageopacity="0.0"
     borderopacity="1.0"
     bordercolor="#666666"
     pagecolor="#ffffff"
     id="base"
     inkscape:pagecheckerboard="0">
    <inkscape:grid
       empspacing="6"
       spacingy="2.6458334"
       spacingx="2.6458334"
       id="grid833"
       type="xygrid" />
  </sodipodi:namedview>
  <metadata
     id="metadata5">
    <rdf:RDF>
      <cc:Work
         rdf:about="">
        <dc:format>image/svg+xml</dc:format>
        <dc:type
           rdf:resource="http://purl.org/dc/dcmitype/StillImage" />
        <dc:title />
      </cc:Work>
    </rdf:RDF>
  </metadata>
  <g
     id="layer1"
     inkscape:groupmode="layer"
     inkscape:label="Layer 1">
    <path
       style="fill:#000000;fill-opacity:1;stroke:none;stroke-width:0.264583px;stroke-linecap:butt;stroke-linejoin:miter;stroke-opacity:1"
       d="M 5.2916668,52.916668 7.9375002,58.208335 12.829536,54.088726 55.562501,15.875 52.916668,13.229167 H 50.270835 L 39.687501,15.875 10.583333,26.458332 5.2916669,39.687499 l -2.6458336,7.9375 z"
       id="path1333"
       sodipodi:nodetypes="ccccccccccc" />
    <g
       transform="matrix(1.4953074,0,0,1.5860527,3.5517603,-1.0867418)"
       style="display:inline;fill:#5dca90;fill-rule:nonzero;stroke:none;stroke-width:0.642259;stroke-linecap:butt;stroke-linejoin:miter;stroke-dasharray:none"
       id="g132"
       inkscape:groupmode="layer">
      <path
         d="M 8.4535483,40.502748 C 5.283927,40.293892 3.6268803,39.235536 2.7757991,38.061024 c 0.1631219,-2.859335 0.635732,-6.420706 1.9639478,-9.65278 0.761456,-1.850848 1.8420769,-3.526391 3.1677056,-4.758012 1.449393,-1.468115 2.7886505,-2.597755 4.1380375,-3.529247 2.663544,-1.827392 5.000227,-2.623454 5.739708,-2.903493 0.747959,-0.267291 2.089089,-0.76975 3.711942,-1.329216 1.617678,-0.513167 3.577079,-1.255791 5.249582,-2.163725 3.428898,-1.736834 6.271009,-3.696801 6.266495,-3.697515 0.0057,7.14e-4 -3.03301,1.560815 -6.56374,2.855766 -1.781494,0.703463 -3.60163,1.165946 -5.300555,1.530221 -1.671844,0.398336 -3.083871,0.803914 -3.861445,1.082525 C 15.833504,16.05787 7.1221398,18.640021 2.6726327,27.295736 1.6661691,29.506576 1.03494,31.793595 0.62616073,33.936618 -0.37966438,33.410704 -1.6317896,32.392936 -1.9728694,30.50925 -2.5673392,27.227307 -2.2365761,17.379234 7.3974555,11.90858 17.032176,6.4386008 27.788735,7.5318748 32.936483,5.9275959 c 5.147089,-1.6042892 7.192911,-5.25188431 7.192911,-5.25188431 0,0 -4.289589,37.12801541 -31.6758457,39.82703641 z"
         id="path134"
         style="display:inline;stroke-width:0.680526" />
    </g>
    <g
       transform="matrix(0.9283404,0,0,0.8018642,10.238583,15.740584)"
       id="g884">
      <path
         inkscape:connector-curvature="0"
         style="overflow:hidden;fill:currentColor;stroke-width:0.042335"
         d="m 28.52113,17.974747 c 1.412895,0 2.841488,0.492405 3.916857,1.352357 1.883858,1.505267 2.366597,3.361249 2.43855,4.653282 0.115129,2.052383 -0.702523,4.131421 -2.242315,5.70122 -0.431718,0.440496 -1.743878,1.778823 -1.777891,3.77369 -0.04577,2.657015 2.150737,4.615406 4.003199,5.791001 a 10.439717,11.194813 0 0 0 5.314052,1.561382 c 1.910022,0 3.80958,-0.55974 5.494587,-1.620303 2.668801,-1.676415 3.956105,-4.209979 5.091652,-6.444733 l 0.0955,-0.192191 0.196235,-0.392801 c 0.990334,2.073426 1.108075,4.722023 1.058361,6.404052 -0.05232,1.773212 -0.393779,3.473477 -1.013882,5.055902 -3.127989,7.985073 -11.621054,10.830071 -18.527226,10.830071 -2.067011,0 -4.093469,-0.238486 -6.020498,-0.708444 -6.240283,-1.522101 -9.568434,-4.316597 -10.175455,-8.54341 -0.767935,-5.344893 3.67745,-9.045632 5.63326,-10.392378 1.521478,-1.059159 1.582966,-2.516727 1.539794,-3.093305 -0.156989,-2.043965 -1.838072,-2.830969 -2.951378,-3.352832 l -0.340143,-0.161329 a 18.50368,19.842037 0 0 1 -2.782618,-1.631525 c 1.917872,-0.09259 3.698381,-1.363579 4.578822,-3.291108 1.1277,-2.460614 2.933064,-4.42181 4.599756,-4.994177 0.587396,-0.20201 1.21666,-0.304421 1.870776,-0.304421 m 0,-2.805716 c -0.907915,0 -1.811905,0.143091 -2.670109,0.437691 -2.725054,0.938513 -4.926812,3.763871 -6.148703,6.429302 -0.457883,1.004446 -1.407662,1.72692 -2.452942,1.72692 -0.126897,0 -0.255106,-0.0099 -0.383313,-0.03226 -1.276838,-0.223054 -2.353515,-0.694414 -3.065195,-0.695817 -0.588706,0 -0.928848,0.322658 -0.928848,1.373398 0,2.341373 2.845412,4.668715 6.304386,6.345131 1.089759,0.528879 2.408462,0.998838 1.406353,1.694654 -4.182428,2.884278 -7.598231,7.588064 -6.796282,13.177052 0.955012,6.639734 6.666767,9.507177 12.180978,10.852519 2.09841,0.512042 4.335492,0.778586 6.601356,0.778586 8.551933,0 17.510729,-3.798942 20.939612,-12.551379 0.750927,-1.917707 1.153864,-3.977105 1.216659,-6.053336 0.11251,-3.834014 -0.641033,-8.417153 -3.736319,-10.830071 a 0.19885177,0.21323455 0 0 0 -0.119059,-0.04068 c -0.678973,0 -2.203068,3.219563 -2.407152,3.619377 -1.072753,2.114108 -2.103642,4.103361 -4.117016,5.368741 a 8.2549644,8.8520394 0 0 1 -4.171964,1.234515 7.7839998,8.3470102 0 0 1 -3.982268,-1.169984 c -0.978558,-0.621471 -2.742059,-1.958394 -2.71851,-3.324781 0.01309,-0.708442 0.485355,-1.303255 0.965476,-1.792853 4.047681,-4.128613 4.27008,-10.874962 -0.43695,-14.637429 -1.554183,-1.24153 -3.524385,-1.907888 -5.481504,-1.907888 z"
         fill="#333333"
         id="path870" />
      <path
         inkscape:connector-curvature="0"
         style="overflow:hidden;fill:#ffffff;stroke-width:0.042335"
         d="m 28.52113,17.974747 c 1.412895,0 2.841488,0.492405 3.916857,1.352357 1.883858,1.505267 2.366597,3.361249 2.43855,4.653282 0.115129,2.052383 -0.702523,4.131421 -2.242315,5.70122 -0.431718,0.440496 -1.743878,1.778823 -1.777891,3.77369 -0.04577,2.657015 2.150737,4.615406 4.003199,5.791001 a 10.439717,11.194813 0 0 0 5.314052,1.561382 c 1.910022,0 3.80958,-0.55974 5.494587,-1.620303 2.668801,-1.676415 3.956105,-4.209979 5.091652,-6.444733 l 0.0955,-0.192191 0.196235,-0.392801 c 0.990334,2.073426 1.108075,4.722023 1.058361,6.404052 -0.05232,1.773212 -0.393779,3.473477 -1.013882,5.055902 -3.127989,7.985073 -11.621054,10.830071 -18.527226,10.830071 -2.067011,0 -4.093469,-0.238486 -6.020498,-0.708444 -6.240283,-1.522101 -9.568434,-4.316597 -10.175455,-8.54341 -0.767935,-5.344893 3.67745,-9.045632 5.63326,-10.392378 1.521478,-1.059159 1.582966,-2.516727 1.539794,-3.093305 -0.156989,-2.043965 -1.838072,-2.830969 -2.951378,-3.352832 l -0.340143,-0.161329 a 18.50368,19.842037 0 0 1 -2.782618,-1.631525 c 1.917872,-0.09259 3.698381,-1.363579 4.578822,-3.291108 1.1277,-2.460614 2.933064,-4.42181 4.599756,-4.994177 0.587396,-0.20201 1.21666,-0.304421 1.870776,-0.304421 m 0,-2.805716 z"
         fill="#333333"
         id="path876" />
      <path
         inkscape:connector-curvature="0"
         style="overflow:hidden;fill:currentColor;stroke-width:0.042335"
         d="m 25.943908,23.431869 m -1.308237,0 a 1.308236,1.4028596 0 1 0 2.616472,0 1.308236,1.4028596 0 1 0 -2.616472,0 z"
         fill="#333333"
         id="path878" />
      <path
         inkscape:connector-curvature="0"
         style="overflow:hidden;fill:currentColor;stroke-width:0.042335"
         d="m 37.041668,48.68333 c -3.809583,0 -7.544594,-1.652569 -9.848397,-4.445662 a 0.65436093,0.70169033 0 0 1 0.981177,-0.92869 c 2.362674,2.863234 6.428668,4.383932 10.37823,3.873292 2.114109,-0.273558 4.154955,-1.129301 5.745769,-2.407306 a 0.65411813,0.70142999 0 1 1 0.784941,1.122288 c -1.772658,1.4239 -4.035906,2.375038 -6.375029,2.679459 -0.553384,0.07014 -1.112002,0.106624 -1.666691,0.106624 z"
         fill="#333333"
         id="path880" />
    </g>
  </g>
</svg>
